<svg width="512" height="512" viewBox="0 0 512 512" fill="none" xmlns="http://www.w3.org/2000/svg">
<rect width="512" height="512" fill="white"/>
<mask id="mask0_0_2" style="mask-type:luminance" maskUnits="userSpaceOnUse" x="1" y="0" width="510" height="510">
<rect x="1" width="510" height="510" fill="white"/>
</mask>
<g mask="url(#mask0_0_2)">
<path fill-rule="evenodd" clip-rule="evenodd" d="M146.217 222.54V135.55L15.0028 102.186L262.168 30.0339L497.744 102.186C488.211 104.884 471.934 109.49 448.912 116.005C425.891 122.52 402.87 129.035 379.848 135.55V222.54" fill="#111111"/>
<path d="M552.955 454.81C552.955 614.249 424.514 743.462 266.074 743.462C107.634 743.462 -20.8129 614.249 -20.8129 454.81V454.81C-20.8129 295.395 107.628 166.164 266.074 166.164C424.521 166.164 552.955 295.395 552.955 454.81Z" fill="#DF2A59"/>
<path d="M401.822 599.139C355.902 590.555 397.929 636.845 390.887 653.59C363.052 639.818 373.659 685.407 361.07 698.068C337.223 696.806 333.5 720.986 316.86 728.068C296.761 716.846 281.938 739.069 262.742 739.069C243.546 739.069 233.923 717.717 210.367 728.068C193.732 720.986 191.738 697.658 167.892 698.068C155.302 685.407 158.111 637.205 138.94 653.59C131.897 636.851 164.396 587.065 128.004 599.139C128.004 579.825 166.554 543.987 138.94 544.682C145.982 527.943 179.559 515.484 167.021 500.203C192.199 474.874 224.369 459.177 262.755 459.177C299.697 459.163 335.107 473.937 361.089 500.203C342.486 509.38 383.863 527.975 390.906 544.682C359.827 543.116 401.841 579.825 401.841 599.139H401.822Z" fill="#ED7795"/>
<path d="M185.579 232.007C131.456 232.007 87.5041 283.132 87.5041 346.154C87.5041 409.176 131.462 460.301 185.579 460.301C217.384 460.301 245.61 442.628 263.531 415.267C281.446 442.641 309.729 460.301 341.552 460.301C395.676 460.301 439.628 409.176 439.628 346.154C439.628 283.132 395.67 232.007 341.559 232.007C309.742 232.007 281.453 249.68 263.537 277.035C245.616 249.692 217.39 232.007 185.586 232.007H185.579Z" fill="white"/>
<path fill-rule="evenodd" clip-rule="evenodd" d="M200.695 364.918C205.17 375.59 215.639 382.509 227.209 382.44C234.762 382.42 241.998 379.398 247.324 374.041C252.65 368.683 255.629 361.428 255.605 353.873C255.608 342.3 248.631 331.869 237.935 327.455C227.24 323.04 214.938 325.515 206.78 333.721C198.623 341.928 196.22 354.246 200.695 364.918ZM272.601 364.918C277.076 375.59 287.545 382.509 299.115 382.44C306.669 382.42 313.905 379.398 319.23 374.041C324.556 368.683 327.535 361.428 327.512 353.873C327.514 342.3 320.537 331.869 309.842 327.455C299.146 323.04 286.845 325.515 278.687 333.721C270.529 341.928 268.126 354.246 272.601 364.918Z" fill="black"/>
<path fill-rule="evenodd" clip-rule="evenodd" d="M290.603 348.679C287.602 348.696 284.887 346.902 283.727 344.135C282.566 341.368 283.189 338.173 285.304 336.045C287.42 333.916 290.609 333.274 293.383 334.419C296.157 335.563 297.967 338.268 297.967 341.269C297.973 343.228 297.201 345.11 295.82 346.5C294.439 347.89 292.562 348.674 290.603 348.679V348.679ZM221.725 348.679C218.725 348.696 216.01 346.902 214.849 344.135C213.689 341.368 214.312 338.173 216.427 336.045C218.542 333.916 221.732 333.274 224.506 334.419C227.279 335.563 229.089 338.268 229.089 341.269C229.096 343.228 228.324 345.11 226.943 346.5C225.561 347.89 223.684 348.674 221.725 348.679Z" fill="white"/>
<path d="M263.26 406.872C247.168 406.872 230.105 423.093 230.806 433.344C231.506 443.594 257 486.286 263.31 486.286C269.621 486.286 296.585 444.465 295.884 432.472C295.184 420.48 273.76 406.001 263.26 406.853V406.872Z" fill="#F7B612"/>
<path fill-rule="evenodd" clip-rule="evenodd" d="M437.067 120.452V163.942L434.695 198.598L421.389 275.559H445.767L448.344 257.759L459.944 275.559H469.348L445.767 198.598L445.368 163.942V117.766" fill="#F7B612"/>
</g>
</svg>
